<?xml version="1.0" encoding="utf-8"?>
<!-- Generator: Adobe Illustrator 26.2.1, SVG Export Plug-In . SVG Version: 6.00 Build 0)  -->
<svg version="1.1" id="레이어_1" xmlns="http://www.w3.org/2000/svg" xmlns:xlink="http://www.w3.org/1999/xlink" x="0px"
	 y="0px" viewBox="0 0 150 150" style="enable-background:new 0 0 150 150;" xml:space="preserve">
<style type="text/css">
	.st0{fill:#FFFFFF;}
</style>
<circle class="st0" cx="75" cy="75" r="75"/>
<g>
	<path d="M60.38,63.8H72.3v6.75H39.9V63.8h11.92v-4.5h8.55V63.8z M50.48,57.91c-2.01,0-3.78-0.41-5.31-1.24
		c-1.53-0.82-2.72-1.99-3.55-3.49c-0.84-1.5-1.26-3.24-1.26-5.22c0-1.95,0.42-3.67,1.26-5.18c0.84-1.5,2.02-2.66,3.55-3.49
		c1.53-0.82,3.3-1.24,5.31-1.24h11.25c2.01,0,3.78,0.41,5.31,1.24c1.53,0.83,2.71,1.99,3.56,3.49c0.84,1.5,1.26,3.23,1.26,5.18
		c0,1.98-0.42,3.72-1.26,5.22c-0.84,1.5-2.02,2.66-3.56,3.49c-1.53,0.83-3.3,1.24-5.31,1.24H50.48z M52.01,44.86
		c-0.96,0-1.73,0.29-2.32,0.85c-0.58,0.57-0.88,1.33-0.88,2.29c0,0.96,0.29,1.73,0.88,2.29c0.58,0.57,1.36,0.85,2.32,0.85h8.19
		c0.96,0,1.73-0.28,2.32-0.85c0.58-0.57,0.88-1.33,0.88-2.29c0-0.96-0.29-1.72-0.88-2.29c-0.58-0.57-1.36-0.85-2.32-0.85H52.01z"/>
	<path d="M77.7,47.96h32.4V53H77.7V47.96z M109.2,41.21v5.4H78.6v-8.46h8.91v3.06H109.2z M86.61,65.6v1.35h23.04v4.95H78.6V60.65
		h22.18V59.3H78.6v-4.95h30.6V65.6H86.61z"/>
	<path d="M72.86,101.29H60.89v1.8h11.07v9.81H63.5v-3.96H41.36v-5.85h11.07v-1.8H40.46V95.4h32.4V101.29z M40.91,87.75
		c2.82,0,5.09-0.19,6.82-0.56c1.73-0.37,2.98-1.09,3.76-2.14H41.36v-5.89h30.6v5.89H61.84c0.78,1.05,2.03,1.76,3.76,2.14
		c1.72,0.38,4,0.56,6.82,0.56l-0.9,5.85c-6.69,0-11.64-1.11-14.85-3.33c-3.21,2.22-8.16,3.33-14.85,3.33L40.91,87.75z"/>
	<path d="M87.67,94.32c-1.2,1.2-2.57,2.12-4.12,2.77c-1.54,0.65-3.16,0.97-4.84,0.97l-1.35-6.75c1.53,0,2.81-0.43,3.85-1.28
		c1.04-0.85,1.72-2.26,2.05-4.21h-5.22v-6.75h19.17v6.75h-5.17c0.33,1.95,1.01,3.35,2.05,4.21c1.04,0.86,2.32,1.28,3.85,1.28
		l-1.35,6.75c-1.68,0-3.29-0.32-4.84-0.97C90.2,96.44,88.84,95.52,87.67,94.32z M87.4,106.15h22.14v6.75h-30.6v-12.83h8.46V106.15z
		 M101.08,100.98v-8.42h-2.97v-6.75h2.97V78.7h8.41v22.28H101.08z"/>
</g>
</svg>
